<svg xmlns="http://www.w3.org/2000/svg" width="189.333" height="66.973" viewBox="0 0 189.333 66.973">
  <g id="CFI_Inverted_Logo" data-name="CFI_Inverted Logo" transform="translate(0.047)">
    <path id="Path_1" data-name="Path 1" d="M1031.953,108.693c0-4.551,2.79-7.4,6.67-7.4,3.334,0,5.453,1.532,5.956,4.846l-3.192.5a2.5,2.5,0,0,0-2.727-2.265c-1.783,0-3.1,1.447-3.1,4.216,0,2.852,1.238,4.236,3.063,4.236a2.614,2.614,0,0,0,2.873-2.265l3.167.5c-.545,3.272-2.852,4.865-6.208,4.865-3.859,0-6.5-2.58-6.5-7.236m21.183,1.7c0,1.657-.8,2.618-2.16,2.618-1.406,0-2.182-.986-2.182-2.618s.776-2.621,2.161-2.621c1.363,0,2.182,1.007,2.182,2.621m-7.718.062c0,3.419,2.1,5.453,5.495,5.453a5.278,5.278,0,0,0,5.6-5.579c0-3.419-2.076-5.453-5.494-5.453a5.289,5.289,0,0,0-5.6,5.579m29.53-1.3c0-2.705-1.322-4.278-3.692-4.278a3.714,3.714,0,0,0-3.482,1.971,3.309,3.309,0,0,0-3.271-1.971,3.634,3.634,0,0,0-3.209,1.573l-.167-1.237h-3.02v10.382h3.355v-6.228a1.806,1.806,0,0,1,1.784-1.406c1.049,0,1.594.63,1.594,1.741v5.893h3.355v-6.145a1.824,1.824,0,0,1,1.8-1.489c1.049,0,1.594.63,1.594,1.741v5.893h3.356v-6.438m18.939,0c0-2.705-1.322-4.278-3.692-4.278a3.714,3.714,0,0,0-3.481,1.971,3.309,3.309,0,0,0-3.271-1.971,3.633,3.633,0,0,0-3.209,1.573l-.168-1.237h-3.02v10.381h3.355v-6.228a1.806,1.806,0,0,1,1.783-1.406c1.049,0,1.594.63,1.594,1.741v5.893h3.355v-6.145a1.824,1.824,0,0,1,1.8-1.489c1.049,0,1.594.63,1.594,1.741v5.893h3.356v-6.438m8.79-3.943v6.25a1.927,1.927,0,0,1-1.888,1.405c-1.007,0-1.552-.566-1.552-1.783V105.21h-3.355v6.546c0,2.538,1.216,4.174,3.733,4.174a3.8,3.8,0,0,0,3.271-1.552l.1,1.217h3.041V105.21Zm15.814,4.048c0-2.81-1.322-4.383-3.838-4.383a3.694,3.694,0,0,0-3.23,1.573l-.125-1.237h-3.041v10.382h3.356v-6.208a1.828,1.828,0,0,1,1.887-1.426c1.112,0,1.636.713,1.636,1.995v5.642h3.355v-6.337m2.161,6.334h3.356V105.21h-3.356Zm-.4-13.549a1.933,1.933,0,0,0,2.057,1.995,2.005,2.005,0,1,0,0-4.008,1.937,1.937,0,0,0-2.057,2.014m12.521,10.15a1.224,1.224,0,0,1-1.175.671c-.65,0-1.049-.335-1.049-1.153v-3.733h3.4V105.21h-3.4V102.3h-3.208v2.978h-1.995v2.705h1.846v4.089c0,2.727,1.468,3.838,3.67,3.838,1.846,0,3.083-.629,3.713-1.7Zm9.018-6.982-1.322,5.1-.422,1.865-.461-1.866-1.573-5.1H1134.3l3.922,10.235-.294.671a1.261,1.261,0,0,1-1.217.881,1.336,1.336,0,0,1-.944-.294l-1.364,2.622a4.355,4.355,0,0,0,2.539.629,4.025,4.025,0,0,0,3.942-2.58l.8-1.909,3.586-10.256Zm-99.585,18.156v-3.125h-9.564v13.968h3.4v-4.656h5.662v-3.1h-5.662v-3.083Zm8.537,5.642c0,1.656-.8,2.621-2.16,2.621-1.405,0-2.182-.986-2.182-2.621s.777-2.622,2.161-2.622c1.364,0,2.182,1.007,2.182,2.622m-7.718.062c0,3.419,2.1,5.453,5.495,5.453a5.279,5.279,0,0,0,5.6-5.579c0-3.418-2.076-5.453-5.5-5.453a5.289,5.289,0,0,0-5.6,5.579m19.777-5.411a3.472,3.472,0,0,0-1.069-.147,3,3,0,0,0-2.853,1.8l-.147-1.489h-3.02v10.382h3.356V128.8a2.242,2.242,0,0,1,2.306-1.825,2.925,2.925,0,0,1,.965.146l.461-3.46m3.65,4.153a1.781,1.781,0,0,1,1.888-1.678,1.66,1.66,0,0,1,1.8,1.678h-3.692m6.795,2.077a8.25,8.25,0,0,0,.084-1.217c0-3.419-1.972-5.18-4.949-5.18-3.272,0-5.369,2.2-5.391,5.6-.021,3.5,1.933,5.432,5.2,5.432,2.6,0,4.4-1.111,4.887-3.23l-3-.42a1.654,1.654,0,0,1-1.741,1.049c-1.09,0-1.762-.524-1.95-2.034h6.857m1.09,1.531c.293,2.139,1.741,3.1,4.657,3.1,3.229,0,4.907-1.237,4.907-3.482,0-1.908-1.07-2.915-3.691-3.314-2.182-.335-2.556-.5-2.556-1.007,0-.461.419-.734,1.405-.734,1.007,0,1.552.312,1.657,1.049l3-.42c-.25-2.16-1.741-3.124-4.572-3.124-2.936,0-4.613,1.279-4.613,3.439,0,1.909,1.2,2.916,3.608,3.271,2.223.312,2.643.482,2.643,1.07,0,.524-.546.754-1.615.754s-1.641-.209-1.831-1.027l-3,.42m17.576-.608a1.223,1.223,0,0,1-1.175.671c-.65,0-1.049-.335-1.049-1.153V126.6h3.4v-2.768h-3.4v-2.915h-3.208v2.979h-1.995v2.7h1.845v4.09c0,2.727,1.469,3.838,3.671,3.838,1.846,0,3.083-.629,3.712-1.7Zm2.139.608c.294,2.139,1.741,3.1,4.656,3.1,3.23,0,4.908-1.237,4.908-3.482,0-1.908-1.07-2.915-3.692-3.314-2.182-.335-2.556-.5-2.556-1.007,0-.461.42-.734,1.405-.734,1.007,0,1.552.312,1.657,1.049l3-.42c-.25-2.16-1.74-3.124-4.572-3.124-2.936,0-4.613,1.279-4.613,3.439,0,1.909,1.195,2.916,3.607,3.271,2.223.312,2.643.482,2.643,1.07,0,.524-.545.754-1.615.754s-1.636-.209-1.825-1.027l-3,.42m-61.35,21.406h3.419V138.865H1032.7Zm16.129-6.334c0-2.81-1.322-4.383-3.839-4.383a3.693,3.693,0,0,0-3.229,1.573l-.125-1.237H1038.6v10.382h3.356v-6.206a1.828,1.828,0,0,1,1.887-1.426c1.112,0,1.636.713,1.636,1.995v5.637h3.356V146.5m8.515,2.936a1.224,1.224,0,0,1-1.175.671c-.65,0-1.048-.335-1.048-1.153v-3.733h3.4v-2.768h-3.4v-2.915h-3.209v2.978h-1.995v2.705h1.846v4.089c0,2.727,1.468,3.839,3.67,3.839,1.846,0,3.084-.63,3.713-1.7Zm5.516-3a1.784,1.784,0,0,1,1.888-1.678,1.66,1.66,0,0,1,1.8,1.678h-3.692m6.795,2.076a8.274,8.274,0,0,0,.084-1.216c0-3.419-1.972-5.18-4.95-5.18-3.271,0-5.369,2.2-5.39,5.6-.021,3.5,1.932,5.432,5.2,5.432,2.6,0,4.4-1.111,4.887-3.23l-3-.42a1.654,1.654,0,0,1-1.741,1.049c-1.09,0-1.761-.524-1.95-2.034h6.857m8.83-6.229a3.479,3.479,0,0,0-1.07-.147,3,3,0,0,0-2.853,1.8l-.146-1.489H1071.4v10.379h3.356v-5.409a2.239,2.239,0,0,1,2.306-1.824,2.915,2.915,0,0,1,.965.146l.461-3.46m11.283,4.215c0-2.81-1.322-4.383-3.839-4.383a3.7,3.7,0,0,0-3.23,1.573l-.125-1.237h-3.041v10.379h3.355v-6.206a1.828,1.828,0,0,1,1.888-1.426c1.112,0,1.636.713,1.636,1.995v5.637h3.356V146.5m7.655,3.356a1.869,1.869,0,0,1-1.72.9q-1.132,0-1.133-.944c0-.713.567-1.07,1.72-1.07a5.534,5.534,0,0,1,1.133.084v1.027m4.321.21a.9.9,0,0,1-.5.1c-.312,0-.461-.168-.461-.608V146.35c0-2.873-1.531-4.239-4.635-4.239-2.706,0-4.258,1.216-4.531,3.271l2.957.42c.105-.587.567-.923,1.427-.923.965,0,1.426.42,1.426,1.342v.545a11.96,11.96,0,0,0-1.636-.084c-2.958,0-4.551,1.174-4.551,3.4,0,1.888,1.258,3.062,3.418,3.062a4.2,4.2,0,0,0,3.209-1.154,2.1,2.1,0,0,0,2.076,1.111,4.3,4.3,0,0,0,1.951-.44Zm7.7-.63a1.224,1.224,0,0,1-1.175.671c-.65,0-1.049-.335-1.049-1.153v-3.733h3.4v-2.768h-3.4v-2.915h-3.21v2.978h-1.995v2.705h1.846v4.089c0,2.727,1.468,3.839,3.67,3.839,1.846,0,3.084-.63,3.713-1.7Zm2.831,3.4h3.355V142.449h-3.355Zm-.4-13.549a1.933,1.933,0,0,0,2.057,1.995,2.005,2.005,0,1,0,0-4.008,1.937,1.937,0,0,0-2.057,2.014m13.108,8.347c0,1.657-.8,2.618-2.16,2.618-1.405,0-2.182-.986-2.182-2.618s.777-2.621,2.161-2.621c1.364,0,2.182,1.007,2.182,2.621m-7.718.062c0,3.419,2.1,5.453,5.494,5.453a5.278,5.278,0,0,0,5.6-5.579c0-3.419-2.076-5.453-5.5-5.453a5.289,5.289,0,0,0-5.6,5.579m22.9-1.193c0-2.81-1.321-4.383-3.838-4.383a3.7,3.7,0,0,0-3.23,1.573l-.125-1.237h-3.041v10.379h3.356v-6.206a1.828,1.828,0,0,1,1.888-1.426c1.111,0,1.636.713,1.636,1.995v5.637h3.354V146.5m7.656,3.356a1.868,1.868,0,0,1-1.72.9q-1.132,0-1.133-.944c0-.713.567-1.07,1.72-1.07a5.535,5.535,0,0,1,1.133.084v1.027m4.321.21a.9.9,0,0,1-.5.1c-.315,0-.461-.168-.461-.608V146.35c0-2.873-1.531-4.239-4.635-4.239-2.705,0-4.257,1.216-4.53,3.271l2.957.42c.105-.587.567-.923,1.426-.923.965,0,1.426.42,1.426,1.342v.545a11.953,11.953,0,0,0-1.636-.084c-2.957,0-4.551,1.174-4.551,3.4,0,1.888,1.258,3.062,3.419,3.062a4.2,4.2,0,0,0,3.208-1.154,2.1,2.1,0,0,0,2.077,1.111,4.3,4.3,0,0,0,1.95-.44Zm1.447,2.768h3.355V137.541H1153.6Z" transform="translate(-967.664 -93.794)" fill="#fdf2e1"/>
    <path id="Path_2" data-name="Path 2" d="M8.907,19.574l-4.9,4.9A13.833,13.833,0,0,0,3.677,43.7c.109-.117.218-.233.331-.347l4.9-4.9L28.48,18.882V0Z" transform="translate(0)" fill="#6da542"/>
    <path id="Path_3" data-name="Path 3" d="M8.929,322.445l-4.9,4.9c-.112.113-.222.23-.331.347a13.832,13.832,0,0,0,0,18.881c.109-.117.218-.233.331-.347l4.9-4.9,10.36-10.361,9.217-9.215V302.87Z" transform="translate(-0.022 -283.99)" fill="#fff6d7"/>
    <path id="Path_4" data-name="Path 4" d="M75.281,614.965l-10.36,10.36-4.9,4.9c-.113.113-.222.23-.331.347.109.117.218.234.331.348a13.865,13.865,0,0,0,19.574,0l4.9-4.9V605.75Z" transform="translate(-56.013 -567.989)" fill="#febf30"/>
    <path id="Path_5" data-name="Path 5" d="M477.214,19.574l4.9,4.9a13.832,13.832,0,0,1,.331,19.227c-.109-.117-.218-.233-.331-.347l-4.9-4.9L457.64,18.88V0Z" transform="translate(-429.156)" fill="#febf30"/>
    <path id="Path_6" data-name="Path 6" d="M477.2,322.445l4.9,4.9c.113.113.222.23.331.347a13.831,13.831,0,0,1,0,18.881c-.109-.117-.218-.233-.331-.347l-4.9-4.9-10.36-10.361-9.215-9.215V302.87Z" transform="translate(-429.137 -283.99)" fill="#05a9a1"/>
    <path id="Path_7" data-name="Path 7" d="M466.854,614.965l10.36,10.36,4.9,4.9c.113.113.223.23.331.347-.109.117-.217.234-.331.348a13.865,13.865,0,0,1-19.574,0l-4.9-4.9V605.75Z" transform="translate(-429.156 -567.989)" fill="#fff6d7"/>
  </g>
</svg>
