<?xml version="1.0" encoding="utf-8"?>
<!-- Generator: Adobe Illustrator 26.3.1, SVG Export Plug-In . SVG Version: 6.00 Build 0)  -->
<svg version="1.1" id="Layer_1" xmlns="http://www.w3.org/2000/svg" xmlns:xlink="http://www.w3.org/1999/xlink" x="0px" y="0px"
	 width="298.4px" height="889px" viewBox="0 0 298.4 889" style="enable-background:new 0 0 298.4 889;" xml:space="preserve">
<style type="text/css">
	.st0{fill:#98134C;}
	.st1{fill:#EA8E15;}
	.st2{fill:#03A9A1;}
	.st3{fill:#B44225;}
	.st4{clip-path:url(#SVGID_00000163063857393822894400000016319564150323567795_);}
	.st5{fill:#A46A1D;}
</style>
<g id="Group_324" transform="translate(-1142.921)">
	<g id="Group_284" transform="translate(1141.202 5)">
		<g id="Group_287" transform="translate(1.719 -2.204)">
			
				<rect id="Rectangle_205" x="-1.5" y="0" transform="matrix(2.999987e-03 -1 1 2.999987e-03 -1.180100e-02 297.635)" class="st0" width="301.5" height="297.6"/>
			<g id="Group_286" transform="translate(0.516 0)">
				<g id="Group_288">
					<path id="Path_360" class="st1" d="M1-2H0v301.1l187.8,0.6c27.7-32.5,2.1-74,22.7-178.6c9.4-47.6,49.9-79.5,89.2-119.3v-4.6
						L1-2z"/>
				</g>
			</g>
		</g>
		<rect id="Rectangle_203" x="2.1" y="290.3" class="st2" width="297.8" height="298.1"/>
		<rect id="Rectangle_207" x="2.7" y="587.1" class="st3" width="296.7" height="296.9"/>
		<g id="Group_283" transform="translate(2.074 -5)">
			<g>
				<defs>
					<rect id="SVGID_1_" x="0" y="-2.8" width="297.8" height="596.1"/>
				</defs>
				<clipPath id="SVGID_00000085248947025820081090000008331323573264827313_">
					<use xlink:href="#SVGID_1_"  style="overflow:visible;"/>
				</clipPath>
				<g id="Group_282" style="clip-path:url(#SVGID_00000085248947025820081090000008331323573264827313_);">
					<path id="Path_359" class="st5" d="M246.5,593.3h20.7c-11.1-146.5-103.7-213-193.5-277.5c-26-18.6-51.2-36.7-73.7-56.3v63.6
						c25.2,31.7,55.5,76.8,74.9,129.3C53.8,440,31.5,429.9,8.2,422.3c-2.8-0.9-5.5-1.9-8.2-2.9V447c3,0.9,6,1.8,9.1,2.6
						c30.3,8.3,55.1,19.4,75.5,33.5c9.2,34.7,12.9,72,7,110.2h20.8c4-28.7,4-57.8,0.2-86.5c10.8,11.3,20.2,23.9,28,37.5
						c8.9,15.2,15.3,31.8,18.8,49h21c-2.2-13-7.6-34.3-21.3-58.2c-10.3-18.1-26.6-39.6-52-60.3c-8.1-37.2-22-75.3-41.6-113.4
						c-6.1-11.8-12.2-22.7-18.3-32.9c2.6,1.9,5.1,3.7,7.7,5.6C140.4,395.5,235.3,457.3,246.5,593.3"/>
				</g>
			</g>
		</g>
	</g>
</g>
<rect x="257.3" y="123.7" class="st0" width="61.9" height="171.6"/>
<rect x="-17.2" y="-26" class="st1" width="330.3" height="30.2"/>
<rect x="-45.6" y="-20" class="st1" width="103.1" height="246"/>
</svg>
